<svg width="9" height="9" viewBox="0 0 9 9" fill="none" xmlns="http://www.w3.org/2000/svg">
<path d="M7.40583 3.26663L5.54194 2.99575L4.70874 1.30658C4.68598 1.26033 4.64854 1.22289 4.60229 1.20013C4.4863 1.14287 4.34535 1.19059 4.28736 1.30658L3.45415 2.99575L1.59027 3.26663C1.53888 3.27397 1.4919 3.2982 1.45593 3.3349C1.41244 3.3796 1.38848 3.43973 1.3893 3.50209C1.39013 3.56444 1.41568 3.62392 1.46033 3.66745L2.80888 4.98223L2.49028 6.83877C2.48281 6.88196 2.48759 6.92638 2.50407 6.96699C2.52056 7.0076 2.5481 7.04277 2.58356 7.06853C2.61902 7.09429 2.66099 7.10959 2.70471 7.11271C2.74843 7.11582 2.79214 7.10663 2.8309 7.08617L4.49805 6.20965L6.1652 7.08617C6.21071 7.11039 6.26357 7.11847 6.31422 7.10966C6.44195 7.08763 6.52784 6.96651 6.50582 6.83877L6.18722 4.98223L7.53576 3.66745C7.57247 3.63148 7.5967 3.5845 7.60404 3.53311C7.62386 3.40464 7.5343 3.28572 7.40583 3.26663Z" fill="#FEA250"/>
</svg>
