<svg width="12" height="12" viewBox="0 0 12 12" fill="none" xmlns="http://www.w3.org/2000/svg">
<path d="M5.01546 8.32988C4.95379 8.33 4.8927 8.31795 4.8357 8.29441C4.7787 8.27086 4.72691 8.2363 4.6833 8.19269L2.6903 6.19922C2.64539 6.15591 2.60957 6.10409 2.5849 6.04679C2.56024 5.98949 2.54724 5.92785 2.54665 5.86546C2.54607 5.80308 2.55791 5.74121 2.58149 5.68345C2.60507 5.62569 2.63992 5.57321 2.684 5.52907C2.72809 5.48493 2.78052 5.45 2.83824 5.42634C2.89596 5.40267 2.95782 5.39074 3.0202 5.39124C3.08259 5.39174 3.14425 5.40465 3.20158 5.42924C3.25892 5.45382 3.31079 5.48957 3.35416 5.53441L5.01499 7.19525L8.00544 4.20575C8.09353 4.11759 8.21304 4.06804 8.33767 4.06799C8.4623 4.06795 8.58184 4.11742 8.67 4.20551C8.75816 4.29361 8.80771 4.41312 8.80776 4.53775C8.8078 4.66238 8.75833 4.78192 8.67024 4.87008L5.34763 8.19269C5.30402 8.2363 5.25223 8.27086 5.19523 8.29441C5.13823 8.31795 5.07714 8.33 5.01546 8.32988Z" fill="#2FAB73"/>
</svg>
